<?xml version="1.0" standalone="no"?>
<!DOCTYPE svg PUBLIC "-//W3C//DTD SVG 20010904//EN"
 "http://www.w3.org/TR/2001/REC-SVG-20010904/DTD/svg10.dtd">
<svg version="1.0" xmlns="http://www.w3.org/2000/svg"
 width="512.000000pt" height="512.000000pt" viewBox="0 0 512.000000 512.000000"
 preserveAspectRatio="xMidYMid meet">
<metadata>
Created by potrace 1.14, written by Peter Selinger 2001-2017
</metadata>
<g transform="translate(0.000000,512.000000) scale(0.100000,-0.100000)"
fill="#000000" stroke="none">
<path d="M0 2560 l0 -2560 2560 0 2560 0 0 2560 0 2560 -2560 0 -2560 0 0
-2560z m3834 1688 c9 -12 16 -35 16 -49 0 -15 5 -29 12 -31 6 -2 12 -20 12
-39 1 -18 5 -40 10 -47 5 -8 -1 -20 -18 -33 -14 -11 -26 -27 -26 -35 0 -17
-69 -18 -202 -4 -99 10 -129 21 -83 31 17 3 -81 6 -217 6 -180 0 -248 -3 -248
-11 0 -7 -9 -12 -19 -12 -11 0 -18 3 -15 7 6 10 -163 2 -214 -9 -22 -5 -53 -7
-68 -4 -15 3 -25 1 -22 -4 3 -5 -21 -10 -53 -10 -122 -3 -112 5 -233 -184 -60
-94 -137 -218 -170 -277 -34 -59 -67 -108 -74 -111 -8 -2 -10 3 -6 15 10 30
-37 -48 -67 -111 -16 -33 -26 -63 -23 -68 3 -4 0 -8 -6 -8 -6 0 -9 -4 -6 -9 4
-5 2 -11 -3 -13 -11 -4 -91 -163 -91 -182 0 -8 -4 -16 -9 -18 -17 -6 -63 -110
-53 -120 7 -7 47 -5 119 6 185 28 503 57 628 56 164 -1 356 11 349 21 -3 5 3
10 13 11 10 0 -4 4 -32 8 l-50 7 52 1 c31 1 53 7 56 15 5 13 15 -10 37 -78 21
-64 20 -116 -2 -152 l-19 -33 -77 6 c-42 3 -95 11 -117 17 l-40 11 40 7 c33 5
25 7 -40 9 -44 1 -129 2 -190 2 -60 -1 -149 -1 -197 -1 -49 0 -88 -4 -88 -9 0
-5 -20 -8 -45 -6 -25 2 -45 0 -45 -4 0 -4 -31 -8 -68 -9 -70 -1 -193 -21 -314
-49 l-66 -16 -31 -69 c-17 -37 -28 -76 -25 -86 5 -15 4 -16 -6 -3 -10 13 -11
11 -7 -8 3 -12 2 -20 -3 -17 -11 7 -42 -74 -34 -87 5 -7 2 -8 -6 -3 -10 6 -12
4 -7 -9 5 -11 3 -15 -4 -10 -7 4 -10 1 -7 -7 3 -8 11 -13 17 -11 7 1 10 -2 6
-7 -3 -6 -12 -8 -19 -5 -9 4 -13 -3 -13 -22 -1 -15 -7 -32 -15 -38 -8 -6 -25
-41 -38 -79 -16 -45 -27 -63 -33 -55 -5 9 -6 6 -3 -8 4 -11 -5 -49 -19 -84
-14 -35 -23 -73 -19 -84 4 -15 3 -17 -4 -8 -7 11 -11 8 -16 -13 -4 -14 -4 -31
0 -37 4 -6 3 -8 -4 -4 -11 6 -28 -47 -23 -73 1 -7 -2 -10 -8 -6 -6 3 -11 0
-11 -7 0 -7 -16 -62 -35 -122 -19 -60 -32 -112 -30 -117 3 -4 1 -10 -4 -14 -6
-3 -13 -27 -16 -53 -3 -26 -10 -54 -14 -62 -25 -48 -36 -136 -36 -307 0 -168
2 -183 19 -196 10 -8 16 -19 12 -25 -10 -17 57 -52 100 -52 69 0 239 54 227
73 -3 5 -1 7 5 3 13 -8 129 44 259 117 54 30 198 109 321 177 122 67 222 126
222 131 0 16 -22 10 -56 -16 -18 -14 -38 -25 -44 -25 -16 0 -90 -51 -90 -63 0
-6 -3 -8 -6 -4 -4 3 -18 0 -33 -7 -14 -7 -32 -11 -40 -8 -8 3 -11 0 -7 -7 5
-7 1 -9 -10 -4 -12 4 -15 3 -10 -5 4 -7 2 -12 -4 -12 -6 0 -9 -4 -6 -8 3 -5
-1 -9 -9 -9 -8 0 -11 5 -8 10 7 12 3 10 -74 -32 -35 -18 -61 -36 -59 -40 2 -3
-7 -7 -21 -7 -24 -2 -24 -2 -4 13 12 8 79 45 149 82 70 37 176 94 236 126 69
37 107 53 103 43 -3 -9 -3 -19 0 -22 8 -8 85 33 79 42 -3 5 22 23 54 41 33 17
62 37 66 42 11 19 -4 21 -30 4 -14 -10 -26 -15 -26 -12 0 3 14 14 32 25 21 14
37 18 48 12 11 -6 39 6 96 43 74 48 173 134 139 121 -26 -10 -16 6 18 27 28
19 29 20 7 15 -24 -5 -24 -4 -6 9 11 8 29 15 40 16 12 0 33 2 49 4 15 2 25 0
22 -5 -8 -12 33 -33 51 -26 8 3 28 3 45 -1 25 -5 28 -8 15 -15 -28 -16 -18
-30 19 -26 36 4 49 -13 21 -29 -7 -4 -21 -21 -30 -38 -40 -71 -56 -88 -141
-141 -102 -64 -354 -208 -432 -248 -36 -18 -54 -22 -59 -15 -5 8 -10 6 -16 -5
-5 -9 -18 -16 -29 -16 -27 0 -348 -173 -341 -184 3 -5 0 -6 -6 -2 -14 9 -83
-25 -75 -37 3 -6 1 -7 -5 -4 -14 9 -43 -3 -36 -14 3 -5 -3 -6 -12 -2 -13 5
-15 3 -9 -7 5 -9 4 -11 -4 -6 -6 4 -17 3 -24 -2 -22 -18 -291 -149 -344 -168
-28 -10 -50 -21 -47 -25 2 -4 -3 -12 -11 -19 -13 -11 -14 -10 -9 4 4 11 1 16
-11 16 -9 0 -13 -5 -10 -10 4 -7 -8 -10 -32 -10 -21 0 -60 -3 -87 -6 -27 -3
-58 -2 -70 4 -11 6 -38 18 -58 27 -103 46 -157 155 -161 322 -1 50 -5 89 -9
86 -5 -2 -4 7 1 21 6 13 12 51 14 83 3 32 7 65 10 73 10 27 39 184 39 210 0
14 4 30 9 36 5 6 38 103 74 215 36 112 88 265 116 340 27 75 49 140 48 145 -4
22 2 35 12 28 7 -4 10 -1 7 7 -3 8 2 20 9 28 8 7 12 19 9 27 -3 7 -1 14 3 16
5 2 24 43 44 91 l35 89 -27 -7 c-14 -3 -35 -8 -46 -11 -14 -4 -12 0 8 13 15
10 27 21 27 25 0 4 6 5 14 2 8 -3 17 0 22 7 5 9 -3 10 -37 5 -24 -4 -46 -10
-49 -14 -12 -17 -71 -52 -85 -52 -9 0 -24 -7 -33 -16 -15 -15 -14 -16 8 -10
23 6 23 6 -3 -9 -15 -9 -25 -20 -22 -25 4 -6 3 -10 -2 -10 -13 1 -43 26 -43
37 0 5 -16 24 -35 43 -19 18 -31 38 -28 43 3 6 -1 15 -10 22 -25 18 -3 93 32
107 72 27 182 48 201 38 22 -12 107 0 176 23 35 13 40 20 109 175 40 89 70
164 66 167 -3 3 0 9 6 13 14 9 125 232 116 232 -5 0 -3 4 3 8 14 9 74 126 74
144 0 7 18 42 40 77 21 36 37 67 35 69 -2 2 2 11 10 18 8 8 11 22 8 31 -4 11
-3 14 5 9 8 -5 10 -2 5 10 -5 15 -7 15 -15 0 -5 -9 -6 -22 -2 -29 5 -9 4 -9
-5 -1 -10 9 -9 18 3 43 17 31 30 43 20 17 -3 -8 -1 -17 5 -20 11 -7 74 108 65
117 -3 3 -19 1 -35 -3 -16 -5 -73 -14 -127 -20 -53 -7 -122 -18 -152 -26 -30
-8 -88 -19 -127 -25 -40 -5 -85 -17 -100 -24 -16 -8 -36 -15 -45 -15 -10 0
-18 -3 -18 -8 0 -4 -18 -8 -41 -8 -24 -1 -48 -8 -57 -18 -16 -16 -15 -17 23
-12 l40 6 -41 -13 c-59 -20 -69 -27 -53 -38 8 -5 9 -9 3 -9 -18 0 -64 40 -64
56 0 7 -13 26 -30 41 -24 21 -27 29 -18 40 9 11 6 17 -10 29 l-22 15 27 37
c16 20 32 40 37 43 16 12 261 38 353 38 51 0 98 3 105 7 7 5 21 7 31 6 9 -2
17 1 17 6 0 5 14 6 31 4 22 -3 30 -1 25 7 -5 8 12 11 57 11 97 0 156 10 150
26 -4 10 2 10 29 2 30 -9 38 -6 87 26 30 20 57 33 60 28 13 -19 40 -20 56 -2
10 11 21 17 26 14 5 -3 18 0 29 6 22 12 27 1 8 -18 -9 -9 -8 -12 6 -12 9 0 26
5 37 10 14 8 19 7 19 -3 0 -11 10 -12 48 -6 56 9 304 34 487 49 118 10 308 17
533 19 48 1 81 5 77 10 -3 6 -69 8 -153 6 -81 -2 -185 0 -232 4 l-85 8 105 3
c58 2 112 3 120 2 31 -3 226 -1 255 2 17 2 36 4 43 5 7 0 10 6 7 11 -13 20 14
9 29 -12z m-697 -214 c-3 -3 -12 -4 -19 -1 -8 3 -5 6 6 6 11 1 17 -2 13 -5z
m-1147 -182 c3 -3 -10 -2 -27 1 -18 4 -33 2 -33 -2 0 -10 -24 -16 -102 -27
-33 -4 -48 -3 -48 5 0 6 9 11 19 11 11 0 23 5 26 10 4 6 10 8 14 5 5 -2 28 -1
52 4 41 8 88 5 99 -7z m47 12 c-3 -3 -12 -4 -19 -1 -8 3 -5 6 6 6 11 1 17 -2
13 -5z m-270 -50 c-3 -3 -12 -4 -19 -1 -8 3 -5 6 6 6 11 1 17 -2 13 -5z m-102
-22 c-3 -3 -11 0 -18 7 -9 10 -8 11 6 5 10 -3 15 -9 12 -12z m52 12 c-3 -3
-12 -4 -19 -1 -8 3 -5 6 6 6 11 1 17 -2 13 -5z m399 -140 c-31 -58 -56 -112
-56 -121 0 -9 -15 -45 -34 -82 -87 -167 -126 -253 -120 -263 4 -6 3 -8 -2 -5
-17 10 -28 -5 -69 -91 -22 -46 -43 -86 -47 -88 -4 -3 25 62 63 143 39 82 82
173 97 203 41 87 213 410 219 410 2 0 -20 -47 -51 -106z m819 -649 c-69 -18
-100 -20 -172 -11 -103 14 -61 26 85 25 133 0 136 -1 87 -14z m-245 -15 c0 -5
-5 -10 -11 -10 -5 0 -7 5 -4 10 3 6 8 10 11 10 2 0 4 -4 4 -10z m-900 -34 c0
-3 -4 -8 -10 -11 -5 -3 -10 -1 -10 4 0 6 5 11 10 11 6 0 10 -2 10 -4z m-20
-46 c-6 -11 -13 -20 -16 -20 -2 0 0 9 6 20 6 11 13 20 16 20 2 0 0 -9 -6 -20z
m1107 -1244 c-10 -8 -17 -17 -15 -20 5 -11 -60 -48 -66 -38 -3 6 16 24 42 41
48 31 72 42 39 17z m-857 -505 c0 -5 -7 -11 -14 -14 -10 -4 -13 -1 -9 9 6 15
23 19 23 5z m-63 -26 c0 -8 -4 -12 -9 -9 -5 3 -6 10 -3 15 9 13 12 11 12 -6z
m-342 -345 c3 -5 -1 -10 -9 -10 -9 0 -16 5 -16 10 0 6 4 10 9 10 6 0 13 -4 16
-10z"/>
<path d="M3628 4183 c7 -3 16 -2 19 1 4 3 -2 6 -13 5 -11 0 -14 -3 -6 -6z"/>
<path d="M2250 4070 c-34 -7 -34 -7 -5 -8 17 0 41 4 55 8 33 11 0 11 -50 0z"/>
<path d="M3000 4060 c-14 -4 45 -5 130 -2 85 2 157 6 159 8 8 8 -265 2 -289
-6z"/>
<path d="M3438 4063 c6 -2 18 -2 25 0 6 3 1 5 -13 5 -14 0 -19 -2 -12 -5z"/>
<path d="M3578 4063 c29 -2 74 -2 100 0 26 2 2 3 -53 3 -55 0 -76 -1 -47 -3z"/>
<path d="M2163 4053 c9 -2 25 -2 35 0 9 3 1 5 -18 5 -19 0 -27 -2 -17 -5z"/>
<path d="M2093 4043 c9 -2 25 -2 35 0 9 3 1 5 -18 5 -19 0 -27 -2 -17 -5z"/>
<path d="M2023 4033 c9 -2 25 -2 35 0 9 3 1 5 -18 5 -19 0 -27 -2 -17 -5z"/>
<path d="M1725 4010 l-20 -9 20 1 c11 0 34 4 50 8 l30 8 -30 0 c-16 0 -39 -3
-50 -8z"/>
<path d="M1908 4013 c6 -2 18 -2 25 0 6 3 1 5 -13 5 -14 0 -19 -2 -12 -5z"/>
<path d="M1848 4003 c6 -2 18 -2 25 0 6 3 1 5 -13 5 -14 0 -19 -2 -12 -5z"/>
<path d="M1778 3993 c6 -2 18 -2 25 0 6 3 1 5 -13 5 -14 0 -19 -2 -12 -5z"/>
<path d="M1650 3975 c-30 -7 -44 -13 -30 -13 14 0 48 6 75 13 65 16 27 17 -45
0z"/>
<path d="M1558 3953 c6 -2 18 -2 25 0 6 3 1 5 -13 5 -14 0 -19 -2 -12 -5z"/>
<path d="M1498 3943 c6 -2 18 -2 25 0 6 3 1 5 -13 5 -14 0 -19 -2 -12 -5z"/>
<path d="M1713 3863 c9 -2 23 -2 30 0 6 3 -1 5 -18 5 -16 0 -22 -2 -12 -5z"/>
<path d="M1618 3843 c7 -3 16 -2 19 1 4 3 -2 6 -13 5 -11 0 -14 -3 -6 -6z"/>
<path d="M2354 3748 c-4 -7 -14 -24 -22 -38 -14 -24 -13 -24 3 -5 20 24 37 55
31 55 -3 0 -8 -6 -12 -12z"/>
<path d="M2186 3693 c-6 -14 -5 -15 5 -6 7 7 10 15 7 18 -3 3 -9 -2 -12 -12z"/>
<path d="M2300 3660 c-6 -11 -8 -20 -6 -20 3 0 10 9 16 20 6 11 8 20 6 20 -3
0 -10 -9 -16 -20z"/>
<path d="M2140 3610 c-6 -11 -8 -20 -6 -20 3 0 10 9 16 20 6 11 8 20 6 20 -3
0 -10 -9 -16 -20z"/>
<path d="M2280 3580 c-6 -11 -8 -20 -6 -20 3 0 10 9 16 20 6 11 8 20 6 20 -3
0 -10 -9 -16 -20z"/>
<path d="M2240 3550 c-6 -11 -8 -20 -6 -20 3 0 10 9 16 20 6 11 8 20 6 20 -3
0 -10 -9 -16 -20z"/>
<path d="M2235 3500 c-9 -16 -13 -30 -11 -30 3 0 12 14 21 30 9 17 13 30 11
30 -3 0 -12 -13 -21 -30z"/>
<path d="M2006 3353 c-6 -14 -5 -15 5 -6 7 7 10 15 7 18 -3 3 -9 -2 -12 -12z"/>
<path d="M2628 2963 c7 -3 16 -2 19 1 4 3 -2 6 -13 5 -11 0 -14 -3 -6 -6z"/>
<path d="M1926 2923 c-6 -14 -5 -15 5 -6 7 7 10 15 7 18 -3 3 -9 -2 -12 -12z"/>
<path d="M1950 2891 c-14 -4 -20 -10 -15 -13 6 -3 21 0 35 8 27 14 20 16 -20
5z"/>
<path d="M2628 2853 c12 -2 32 -2 45 0 12 2 2 4 -23 4 -25 0 -35 -2 -22 -4z"/>
<path d="M1738 2843 c7 -3 16 -2 19 1 4 3 -2 6 -13 5 -11 0 -14 -3 -6 -6z"/>
<path d="M2493 2843 c15 -2 39 -2 55 0 15 2 2 4 -28 4 -30 0 -43 -2 -27 -4z"/>
<path d="M2868 2843 c28 -2 76 -2 105 0 28 2 5 3 -53 3 -58 0 -81 -1 -52 -3z"/>
<path d="M1688 2833 c6 -2 18 -2 25 0 6 3 1 5 -13 5 -14 0 -19 -2 -12 -5z"/>
<path d="M1638 2823 c7 -3 16 -2 19 1 4 3 -2 6 -13 5 -11 0 -14 -3 -6 -6z"/>
<path d="M1510 2795 c-19 -7 -28 -13 -20 -13 8 0 31 6 50 13 19 7 28 13 20 13
-8 0 -31 -6 -50 -13z"/>
<path d="M1415 2765 c-39 -17 -21 -18 25 0 19 7 28 14 20 14 -8 0 -28 -6 -45
-14z"/>
<path d="M1738 2508 c-42 -101 -78 -196 -82 -213 -4 -23 -3 -26 4 -10 28 60
160 398 157 402 -2 2 -38 -79 -79 -179z"/>
<path d="M2949 1659 l-24 -20 28 17 c15 9 27 18 27 20 0 8 -8 4 -31 -17z"/>
<path d="M2862 1609 c-29 -17 -51 -33 -49 -36 4 -4 107 57 107 63 0 6 -3 5
-58 -27z"/>
<path d="M3095 1614 c-51 -34 -69 -52 -29 -29 35 20 82 54 74 55 -3 0 -23 -12
-45 -26z"/>
<path d="M2911 1499 c-92 -53 -138 -90 -56 -44 67 37 145 86 145 91 0 6 2 7
-89 -47z"/>
<path d="M2628 1464 c-38 -20 -36 -28 2 -9 17 9 30 18 30 20 0 7 -1 6 -32 -11z"/>
<path d="M2774 1414 c-18 -14 -18 -15 4 -4 12 6 22 13 22 15 0 8 -5 6 -26 -11z"/>
<path d="M2704 1374 c-18 -14 -18 -15 4 -4 12 6 22 13 22 15 0 8 -5 6 -26 -11z"/>
<path d="M2687 1341 c-41 -26 -46 -36 -10 -17 17 9 35 20 38 26 8 13 6 12 -28
-9z"/>
<path d="M2628 1334 c-38 -20 -36 -28 2 -9 17 9 30 18 30 20 0 7 -1 6 -32 -11z"/>
<path d="M2528 1279 c-21 -11 -38 -22 -38 -24 0 -3 18 4 40 15 22 11 40 23 40
25 0 7 0 7 -42 -16z"/>
<path d="M2438 1229 c-21 -11 -38 -22 -38 -24 0 -3 18 4 40 15 22 11 40 23 40
25 0 7 0 7 -42 -16z"/>
<path d="M2134 1194 c-18 -14 -18 -14 6 -3 31 14 36 19 24 19 -6 0 -19 -7 -30
-16z"/>
<path d="M2040 1020 c-119 -68 -126 -81 -11 -19 69 37 133 78 121 79 -3 0 -52
-27 -110 -60z"/>
<path d="M1840 920 c-8 -5 -10 -10 -5 -10 6 0 17 5 25 10 8 5 11 10 5 10 -5 0
-17 -5 -25 -10z"/>
<path d="M1364 883 c52 -56 112 -71 225 -55 67 9 218 58 209 67 -2 2 -35 -8
-75 -21 -39 -13 -106 -29 -149 -35 -100 -14 -155 -1 -209 49 l-40 37 39 -42z"/>
</g>
</svg>
